<svg width="172" height="48" viewBox="0 0 172 48" fill="none" xmlns="http://www.w3.org/2000/svg">
<path d="M14 7H34C37.866 7 41 10.134 41 14V34C41 37.866 37.866 41 34 41H14C10.134 41 7 37.866 7 34V14C7 10.134 10.134 7 14 7Z" stroke="#0066FF" stroke-width="2"/>
<path d="M14.2222 7H34.7778C38.7665 7 42 10.2335 42 14.2222V34.7778C42 38.7665 38.7665 42 34.7778 42H14.2222C10.2335 42 7 38.7665 7 34.7778V14.2222C7 10.2335 10.2335 7 14.2222 7Z" stroke="#0066FF" stroke-width="2"/>
<path d="M22.7939 17.4118C22.7939 16.6321 23.426 16 24.2057 16C24.9854 16 25.6174 16.6321 25.6174 17.4118V27.9553C25.6174 28.735 24.9854 29.3671 24.2057 29.3671C23.426 29.3671 22.7939 28.735 22.7939 27.9553V17.4118Z" fill="#0066FF"/>
<path d="M17.147 24.59C17.147 23.8103 17.779 23.1782 18.5587 23.1782C19.3384 23.1782 19.9705 23.8103 19.9705 24.59V32.72C19.9705 33.4997 19.3384 34.1318 18.5587 34.1318C17.779 34.1318 17.147 33.4997 17.147 32.72V24.59Z" fill="#0066FF"/>
<path d="M34.0884 21.6025C34.0884 20.8228 34.7205 20.1907 35.5002 20.1907C36.2799 20.1907 36.912 20.8228 36.912 21.6025V29.3672C36.912 30.1469 36.2799 30.779 35.5002 30.779C34.7205 30.779 34.0884 30.1469 34.0884 29.3672V21.6025Z" fill="#0066FF"/>
<path d="M11.5 21.6025C11.5 20.8228 12.1321 20.1907 12.9118 20.1907C13.6915 20.1907 14.3235 20.8228 14.3235 21.6025V29.3672C14.3235 30.1469 13.6915 30.779 12.9118 30.779C12.1321 30.779 11.5 30.1469 11.5 29.3672V21.6025Z" fill="#0066FF"/>
<path d="M28.3418 18.4855C28.3418 17.7058 28.9738 17.0737 29.7535 17.0737C30.5332 17.0737 31.1653 17.7058 31.1653 18.4855V26.6156C31.1653 27.3953 30.5332 28.0273 29.7535 28.0273C28.9738 28.0273 28.3418 27.3953 28.3418 26.6156V18.4855Z" fill="#0066FF"/>
<path d="M75.52 16.4661L70.84 33.2181H66.88L63.736 21.2901L60.448 33.2181L56.512 33.2421L52 16.4661H55.6L58.552 29.4741L61.96 16.4661H65.704L68.92 29.4021L71.896 16.4661H75.52Z" fill="white"/>
<path d="M76.8501 26.5221C76.8501 25.1781 77.1141 23.9861 77.6421 22.9461C78.1861 21.9061 78.9141 21.1061 79.8261 20.5461C80.7541 19.9861 81.7861 19.7061 82.9221 19.7061C83.9141 19.7061 84.7781 19.9061 85.5141 20.3061C86.2661 20.7061 86.8661 21.2101 87.3141 21.8181V19.9221H90.6981V33.2181H87.3141V31.2741C86.8821 31.8981 86.2821 32.4181 85.5141 32.8341C84.7621 33.2341 83.8901 33.4341 82.8981 33.4341C81.7781 33.4341 80.7541 33.1461 79.8261 32.5701C78.9141 31.9941 78.1861 31.1861 77.6421 30.1461C77.1141 29.0901 76.8501 27.8821 76.8501 26.5221ZM87.3141 26.5701C87.3141 25.7541 87.1541 25.0581 86.8341 24.4821C86.5141 23.8901 86.0821 23.4421 85.5381 23.1381C84.9941 22.8181 84.4101 22.6581 83.7861 22.6581C83.1621 22.6581 82.5861 22.8101 82.0581 23.1141C81.5301 23.4181 81.0981 23.8661 80.7621 24.4581C80.4421 25.0341 80.2821 25.7221 80.2821 26.5221C80.2821 27.3221 80.4421 28.0261 80.7621 28.6341C81.0981 29.2261 81.5301 29.6821 82.0581 30.0021C82.6021 30.3221 83.1781 30.4821 83.7861 30.4821C84.4101 30.4821 84.9941 30.3301 85.5381 30.0261C86.0821 29.7061 86.5141 29.2581 86.8341 28.6821C87.1541 28.0901 87.3141 27.3861 87.3141 26.5701Z" fill="white"/>
<path d="M99.5235 30.1221L102.884 19.9221H106.46L101.54 33.2181H97.4595L92.5635 19.9221H96.1635L99.5235 30.1221Z" fill="white"/>
<path d="M120.707 26.2821C120.707 26.7621 120.675 27.1941 120.611 27.5781H110.891C110.971 28.5381 111.307 29.2901 111.899 29.8341C112.491 30.3781 113.219 30.6501 114.083 30.6501C115.331 30.6501 116.219 30.1141 116.747 29.0421H120.371C119.987 30.3221 119.251 31.3781 118.163 32.2101C117.075 33.0261 115.739 33.4341 114.155 33.4341C112.875 33.4341 111.723 33.1541 110.699 32.5941C109.691 32.0181 108.899 31.2101 108.323 30.1701C107.763 29.1301 107.483 27.9301 107.483 26.5701C107.483 25.1941 107.763 23.9861 108.323 22.9461C108.883 21.9061 109.667 21.1061 110.675 20.5461C111.683 19.9861 112.843 19.7061 114.155 19.7061C115.419 19.7061 116.547 19.9781 117.539 20.5221C118.547 21.0661 119.323 21.8421 119.867 22.8501C120.427 23.8421 120.707 24.9861 120.707 26.2821ZM117.227 25.3221C117.211 24.4581 116.899 23.7701 116.291 23.2581C115.683 22.7301 114.939 22.4661 114.059 22.4661C113.227 22.4661 112.523 22.7221 111.947 23.2341C111.387 23.7301 111.043 24.4261 110.915 25.3221H117.227Z" fill="white"/>
<path d="M129.255 22.6822H126.927V33.2182H123.519V22.6822H122.007V19.9222H123.519V19.2502C123.519 17.6182 123.983 16.4182 124.911 15.6502C125.839 14.8822 127.239 14.5222 129.111 14.5702V17.4022C128.295 17.3862 127.727 17.5222 127.407 17.8102C127.087 18.0982 126.927 18.6182 126.927 19.3702V19.9222H129.255V22.6822Z" fill="white"/>
<path d="M134.793 15.458V33.218H131.433V15.458H134.793Z" fill="white"/>
<path d="M144.016 33.4341C142.736 33.4341 141.584 33.1541 140.56 32.5941C139.536 32.0181 138.728 31.2101 138.136 30.1701C137.56 29.1301 137.272 27.9301 137.272 26.5701C137.272 25.2101 137.568 24.0101 138.16 22.9701C138.768 21.9301 139.592 21.1301 140.632 20.5701C141.672 19.9941 142.832 19.7061 144.112 19.7061C145.392 19.7061 146.552 19.9941 147.592 20.5701C148.632 21.1301 149.448 21.9301 150.04 22.9701C150.648 24.0101 150.952 25.2101 150.952 26.5701C150.952 27.9301 150.64 29.1301 150.016 30.1701C149.408 31.2101 148.576 32.0181 147.52 32.5941C146.48 33.1541 145.312 33.4341 144.016 33.4341ZM144.016 30.5061C144.624 30.5061 145.192 30.3621 145.72 30.0741C146.264 29.7701 146.696 29.3221 147.016 28.7301C147.336 28.1381 147.496 27.4181 147.496 26.5701C147.496 25.3061 147.16 24.3381 146.488 23.6661C145.832 22.9781 145.024 22.6341 144.064 22.6341C143.104 22.6341 142.296 22.9781 141.64 23.6661C141 24.3381 140.68 25.3061 140.68 26.5701C140.68 27.8341 140.992 28.8101 141.616 29.4981C142.256 30.1701 143.056 30.5061 144.016 30.5061Z" fill="white"/>
<path d="M171.849 19.9221L167.961 33.2181H164.337L161.913 23.9301L159.489 33.2181H155.841L151.929 19.9221H155.337L157.689 30.0501L160.233 19.9221H163.785L166.281 30.0261L168.633 19.9221H171.849Z" fill="white"/>
</svg>
